HIERARCHY
ROOT Hips
{
	OFFSET -0.001795 -0.223333 0.028219
	CHANNELS 6 Xposition Yposition Zposition Zrotation Yrotation Xrotation 
	JOINT LeftUpLeg
	{
		OFFSET 0.069520 -0.091406 -0.006815
		CHANNELS 3 Zrotation Yrotation Xrotation
		JOINT LeftLeg
		{
			OFFSET 0.034277 -0.375199 -0.004496
			CHANNELS 3 Zrotation Yrotation Xrotation
			JOINT LeftFoot
			{
				OFFSET -0.013596 -0.397961 -0.043693
				CHANNELS 3 Zrotation Yrotation Xrotation
				JOINT LeftToe
				{
					OFFSET 0.026358 -0.055791 0.119288
					CHANNELS 3 Zrotation Yrotation Xrotation
					End Site
					{
						OFFSET 0.000000 0.000000 0.000000
					}
				}
			}
		}
	}
	JOINT RightUpLeg
	{
		OFFSET -0.067670 -0.090522 -0.004320
		CHANNELS 3 Zrotation Yrotation Xrotation
		JOINT RightLeg
		{
			OFFSET -0.038290 -0.382569 -0.008850
			CHANNELS 3 Zrotation Yrotation Xrotation
			JOINT RightFoot
			{
				OFFSET 0.015774 -0.398415 -0.042312
				CHANNELS 3 Zrotation Yrotation Xrotation
				JOINT RightToe
				{
					OFFSET -0.025372 -0.048144 0.123348
					CHANNELS 3 Zrotation Yrotation Xrotation
					End Site
					{
						OFFSET 0.000000 0.000000 0.000000
					}
				}
			}
		}
	}
	JOINT Spine
	{
		OFFSET -0.002533 0.108963 -0.026696
		CHANNELS 3 Zrotation Yrotation Xrotation
		JOINT Spine1
		{
			OFFSET 0.005487 0.135180 0.001092
			CHANNELS 3 Zrotation Yrotation Xrotation
			JOINT Spine2
			{
				OFFSET 0.001457 0.052922 0.025425
				CHANNELS 3 Zrotation Yrotation Xrotation
				JOINT Neck
				{
					OFFSET -0.002778 0.213870 -0.042857
					CHANNELS 3 Zrotation Yrotation Xrotation
					JOINT Head
					{
						OFFSET 0.005152 0.064970 0.051349
						CHANNELS 3 Zrotation Yrotation Xrotation
						End Site
						{
							OFFSET 0.000000 0.000000 0.000000
						}
					}
				}
				JOINT LeftShoulder
				{
					OFFSET 0.078845 0.121749 -0.034090
					CHANNELS 3 Zrotation Yrotation Xrotation
					JOINT LeftArm
					{
						OFFSET 0.090977 0.030469 -0.008868
						CHANNELS 3 Zrotation Yrotation Xrotation
						JOINT LeftForeArm
						{
							OFFSET 0.259612 -0.012772 -0.027456
							CHANNELS 3 Zrotation Yrotation Xrotation
							JOINT LeftHand
							{
								OFFSET 0.249234 0.008986 -0.001171
								CHANNELS 3 Zrotation Yrotation Xrotation
								End Site
								{
									OFFSET 0.000000 0.000000 0.000000
								}
							}
						}
					}
				}
				JOINT RightShoulder
				{
					OFFSET -0.081759 0.118833 -0.038615
					CHANNELS 3 Zrotation Yrotation Xrotation
					JOINT RightArm
					{
						OFFSET -0.096012 0.032551 -0.009143
						CHANNELS 3 Zrotation Yrotation Xrotation
						JOINT RightForeArm
						{
							OFFSET -0.253742 -0.013329 -0.021401
							CHANNELS 3 Zrotation Yrotation Xrotation
							JOINT RightHand
							{
								OFFSET -0.255298 0.007772 -0.005559
								CHANNELS 3 Zrotation Yrotation Xrotation
								End Site
								{
									OFFSET 0.000000 0.000000 0.000000
								}
							}
						}
					}
				}
			}
		}
	}
}
MOTION
Frames: 12
Frame Time: 0.050000
0.012421 0.955942 0.032672 -0.694942 -8.383119 4.928228 -3.552230 -0.848161 -7.382074 -0.539089 0.013497 2.434901 2.796001 8.122639 11.518002 0.000000 0.000000 0.000000 3.100860 0.881633 -8.037551 -0.897275 0.388178 5.580382 0.346884 -4.729957 10.040122 0.000000 0.000000 0.000000 7.287215 -0.665315 5.098479 -7.599367 2.463638 -18.740158 -1.438836 9.735478 32.065747 8.256829 -3.233219 -22.124625 0.000000 0.000000 0.000000 -13.505218 -0.921025 -0.778199 -64.299494 -1.971697 -10.060468 7.600525 -24.390922 -0.227462 0.000000 0.000000 0.000000 19.876242 -7.507242 -4.241725 66.581903 0.960813 -9.027570 1.406921 32.197529 2.737600 0.000000 0.000000 0.000000 
0.013207 0.956642 0.031890 -1.017700 -8.892082 5.210122 -3.050452 -0.842088 -7.570738 -0.918778 0.074974 2.229202 3.003507 8.451142 11.795425 0.000000 0.000000 0.000000 3.433240 0.944070 -8.446012 -0.643987 0.366192 5.766707 0.115494 -5.296852 10.144595 0.000000 0.000000 0.000000 7.422523 -0.666182 4.993636 -7.244715 2.344430 -18.742877 -1.583380 9.609345 32.221543 8.800218 -3.559642 -22.820266 0.000000 0.000000 0.000000 -12.695383 -0.384063 -0.869938 -64.953841 -1.889691 -10.199153 7.263467 -23.019547 -0.119775 0.000000 0.000000 0.000000 18.932149 -8.087791 -4.597744 66.596402 0.837014 -9.096711 1.509553 33.451163 2.880851 0.000000 0.000000 0.000000 
0.013862 0.957553 0.030709 -1.317036 -9.710737 5.536546 -2.632780 -0.827452 -7.653655 -1.205400 0.127697 1.733649 3.340310 8.972745 12.249621 0.000000 0.000000 0.000000 3.796637 1.023112 -8.956433 -0.332004 0.335814 5.921781 -0.216565 -6.146966 10.369652 0.000000 0.000000 0.000000 7.509842 -0.686115 5.116022 -7.097114 2.265094 -19.127004 -1.721722 9.472726 32.449462 9.113112 -3.767252 -23.531478 0.000000 0.000000 0.000000 -11.781058 -0.075126 -0.811993 -65.222874 -1.782274 -10.275493 6.664895 -21.681528 0.023908 0.000000 0.000000 0.000000 18.007875 -9.141219 -5.251782 65.760619 -0.227995 -9.640281 2.512694 36.020718 3.416884 0.000000 0.000000 0.000000 
0.014367 0.958582 0.029782 -1.688291 -10.517647 5.970967 -2.135493 -0.840126 -8.090194 -1.475300 0.170866 1.717494 3.706698 9.527125 12.684589 0.000000 0.000000 0.000000 4.355522 1.116935 -9.491016 -0.156722 0.316431 5.931569 -0.620537 -7.187568 10.747225 0.000000 0.000000 0.000000 7.659951 -0.691548 5.032547 -6.900997 2.182001 -19.193028 -2.012301 8.736962 32.508083 9.046032 -3.877942 -23.913346 0.000000 0.000000 0.000000 -11.076826 1.082515 -1.101073 -65.075305 -1.291661 -10.406336 6.428504 -20.675641 0.117268 0.000000 0.000000 0.000000 16.266766 -10.486522 -6.023683 64.674850 -1.707630 -10.359065 4.001994 39.509425 4.198476 0.000000 0.000000 0.000000 
0.014463 0.959710 0.029360 -1.788463 -11.624690 6.123780 -1.906952 -0.820731 -8.043409 -1.793902 0.226501 1.401525 4.178711 10.223250 13.299664 0.000000 0.000000 0.000000 4.503930 1.185107 -9.928759 0.116274 0.295974 6.113043 -0.779718 -7.867763 11.328976 0.000000 0.000000 0.000000 7.813493 -0.717837 5.241828 -6.955366 2.155785 -19.601395 -2.404384 8.232098 32.804783 8.756068 -4.030413 -23.173108 0.000000 0.000000 0.000000 -9.954262 2.601887 -1.544807 -64.974334 -0.418518 -10.751732 6.887307 -20.133409 0.107032 0.000000 0.000000 0.000000 14.710665 -12.083364 -6.846167 63.439683 -3.654648 -11.316493 6.549114 43.233721 5.492833 0.000000 0.000000 0.000000 
0.014228 0.961077 0.029473 -1.858525 -12.668648 6.234786 -1.659227 -0.804513 -8.047507 -2.167896 0.288677 1.307628 4.620273 10.858872 13.952982 0.000000 0.000000 0.000000 4.570719 1.266737 -10.456809 -0.018204 0.329092 6.274443 -0.243019 -7.596551 12.716123 0.000000 0.000000 0.000000 7.837960 -0.713149 5.223355 -6.961466 2.125015 -19.868991 -2.629226 7.455549 33.065737 7.788585 -3.688115 -23.057655 0.000000 0.000000 0.000000 -8.987846 4.116161 -1.993314 -63.760387 1.076403 -11.227371 7.313002 -20.159377 0.110231 0.000000 0.000000 0.000000 13.421705 -13.556873 -7.604462 60.991329 -6.009184 -12.202943 9.204958 48.237694 7.109415 0.000000 0.000000 0.000000 
0.013591 0.961990 0.029583 -1.815354 -13.537290 6.181588 -1.884451 -0.776914 -7.591092 -1.886797 0.255353 0.690853 4.993390 11.380014 14.488213 0.000000 0.000000 0.000000 4.578477 1.310320 -10.738988 0.083378 0.337247 6.550717 -0.184089 -7.888924 13.385374 0.000000 0.000000 0.000000 7.540152 -0.701158 5.334342 -6.460882 1.962329 -19.743177 -2.828963 7.146888 32.963763 7.398818 -3.604695 -22.871918 0.000000 0.000000 0.000000 -7.992891 6.258221 -2.830285 -61.718435 2.683955 -11.581500 8.302015 -21.417583 0.002907 0.000000 0.000000 0.000000 12.939919 -14.907676 -8.328198 58.421625 -7.745987 -12.537553 9.443761 53.460469 7.867313 0.000000 0.000000 0.000000 
0.012674 0.963063 0.029282 -1.807731 -14.180544 6.194141 -1.954288 -0.758375 -7.342243 -1.735128 0.239908 0.265173 5.255264 11.739758 15.020821 0.000000 0.000000 0.000000 4.654803 1.318765 -10.786995 0.006392 0.351708 6.561547 0.118877 -7.542907 13.621842 0.000000 0.000000 0.000000 7.428431 -0.739180 5.833566 -6.362905 1.906621 -20.246116 -2.543205 6.969651 33.051396 6.668107 -3.254471 -22.775277 0.000000 0.000000 0.000000 -6.794533 6.924766 -3.002572 -59.528998 2.857595 -11.235143 10.201803 -24.007010 -0.303644 0.000000 0.000000 0.000000 13.087919 -15.839734 -8.934431 56.320395 -9.390326 -12.842424 9.155377 57.224879 8.139244 0.000000 0.000000 0.000000 
0.011672 0.963307 0.028382 -1.672982 -14.292449 6.182420 -2.028770 -0.762018 -7.333264 -1.727705 0.240391 0.143026 5.286186 11.780938 15.203428 0.000000 0.000000 0.000000 4.316853 1.387942 -11.313353 0.497118 0.328544 7.235428 0.079253 -7.740381 13.899585 0.000000 0.000000 0.000000 7.314416 -0.752035 6.057287 -5.777246 1.744575 -19.760821 -2.401349 6.814592 32.568128 6.444316 -3.222207 -22.019699 0.000000 0.000000 0.000000 -5.284071 8.190541 -3.454377 -56.135234 2.881011 -10.555485 12.388153 -29.212085 -0.872713 0.000000 0.000000 0.000000 13.453864 -16.343606 -9.324057 54.944663 -10.159779 -12.791623 7.787019 59.733398 7.659928 0.000000 0.000000 0.000000 
0.010714 0.963758 0.027013 -1.592104 -14.207642 5.951774 -2.419653 -0.743545 -6.896588 -1.049965 0.152716 -0.338928 5.218273 11.695475 15.403167 0.000000 0.000000 0.000000 4.137630 1.389682 -11.371073 0.614800 0.297662 7.006212 0.330552 -7.886525 15.368557 0.000000 0.000000 0.000000 7.306787 -0.784182 6.463330 -5.153662 1.571379 -19.585199 -1.353740 7.235035 32.071980 6.125263 -2.899792 -21.981256 0.000000 0.000000 0.000000 -3.889692 7.770775 -3.198123 -51.387096 0.737333 -8.886996 19.986508 -34.698642 -3.346728 0.000000 0.000000 0.000000 14.327278 -16.040377 -9.298620 54.277416 -10.186040 -12.560467 4.032997 58.019240 5.450124 0.000000 0.000000 0.000000 
0.010129 0.963935 0.025734 -1.244465 -13.279817 5.440706 -2.818546 -0.739227 -6.634302 -0.805242 0.114586 -0.167825 4.726351 11.045054 15.305775 0.000000 0.000000 0.000000 3.756349 1.350686 -11.212338 0.678572 0.274971 6.891042 0.050529 -8.714612 16.716328 0.000000 0.000000 0.000000 7.037774 -0.822455 7.158386 -3.910293 1.242478 -19.607218 -1.016261 7.341068 31.379763 5.951485 -2.715262 -21.399429 0.000000 0.000000 0.000000 -1.846131 6.975766 -2.735304 -43.520896 -4.229512 -5.996644 32.954331 -36.786778 -8.005829 0.000000 0.000000 0.000000 14.709771 -15.693669 -9.083325 54.188750 -10.181202 -12.446498 4.507317 54.887339 5.490184 0.000000 0.000000 0.000000 
0.010484 0.964258 0.024691 -0.934625 -12.173197 4.547814 -3.203486 -0.670594 -5.800287 -0.626512 0.090367 -0.237898 4.110153 10.234683 15.183343 0.000000 0.000000 0.000000 3.286723 1.198561 -10.303160 0.382788 0.282882 6.479035 0.582330 -8.007083 17.763794 0.000000 0.000000 0.000000 6.792444 -0.864190 7.982915 -2.737098 0.944156 -19.569920 -0.200439 7.068935 30.717434 5.115406 -2.135006 -20.727807 0.000000 0.000000 0.000000 2.188627 5.889404 -2.027364 -35.810881 -9.355285 -3.658361 46.202310 -34.334022 -11.881264 0.000000 0.000000 0.000000 14.732623 -14.702789 -8.456871 54.261154 -10.405893 -12.484752 6.717082 50.279045 6.008827 0.000000 0.000000 0.000000 
